# xmcd
#
# Track frame offsets: 
#        150
#        12623
#        31575
#        48336
#        65151
#        81527
#        98139
#        115625
#        136079
#        147769
#        161751
#        174081
#        186583
#
# Disc length: 2730 seconds
#
# Revision: 0
# Processed by: cddbd v1.5.1PL0 Copyright (c) Steve Scherf et al.
# Submitted via: ExactAudioCopy v0.95a5
#
DISCID=ad0aa80d
DTITLE=World Greatest Fishing Band - Papa Was A Fishin' Man Disk 1
DYEAR=2003
DGENRE=Country
TTITLE0=When Tammy Doew The Shimmy At The Fish Fry
TTITLE1=Papa Was A Fishin' Man
TTITLE2=Big Boss Bass
TTITLE3=Breathin' Room
TTITLE4=Middle Of The Week
TTITLE5=Cane Pole And Bobber
TTITLE6=Take Me Back To Texas
TTITLE7=Only Time I Saw Him Smile
TTITLE8=Bluegill Boogie
TTITLE9=Why's Everybody Gettin' Bit Except Me?
TTITLE10=Walleyed Again
TTITLE11=Musky Man
TTITLE12=Back Into The Circle
EXTD=
EXTT0=
EXTT1=
EXTT2=
EXTT3=
EXTT4=
EXTT5=
EXTT6=
EXTT7=
EXTT8=
EXTT9=
EXTT10=
EXTT11=
EXTT12=
PLAYORDER=
